<svg width="240" height="42" viewBox="0 0 240 42" fill="none" xmlns="http://www.w3.org/2000/svg">
<path d="M10.76 29.52C10.76 32.096 12.608 33.384 16.304 33.384C20.0373 33.384 21.904 32.2267 21.904 29.912C21.904 28.68 21.2693 27.672 20 26.888C18.7307 26.104 17.1813 25.4507 15.352 24.928C13.56 24.4053 11.7493 23.808 9.92 23.136C8.128 22.4267 6.59733 21.344 5.328 19.888C4.05867 18.3947 3.424 16.5467 3.424 14.344C3.424 4.97333 9.45333 0.287997 21.512 0.287997C25.9173 0.287997 29.24 1.128 31.48 2.808C33.7573 4.45067 34.896 6.74667 34.896 9.696C34.896 10.7787 34.7467 11.824 34.448 12.832C34.1867 13.8027 33.9067 14.4933 33.608 14.904L33.16 15.576H23.248C24.0693 14.7173 24.48 13.6347 24.48 12.328C24.48 9.90133 22.8933 8.688 19.72 8.688C15.7253 8.688 13.728 9.95733 13.728 12.496C13.728 13.7653 14.3627 14.7733 15.632 15.52C16.9013 16.2667 18.432 16.864 20.224 17.312C22.0533 17.7227 23.8827 18.2453 25.712 18.88C27.5413 19.5147 29.0907 20.5787 30.36 22.072C31.6293 23.528 32.264 25.432 32.264 27.784C32.264 32.5253 30.8453 36.0533 28.008 38.368C25.1707 40.6453 20.8027 41.784 14.904 41.784C9.00533 41.784 4.97333 40.7387 2.808 38.648C1.20267 37.08 0.4 34.9147 0.4 32.152C0.4 31.1067 0.512 29.968 0.736 28.736L0.904 27.84H10.984L10.872 28.512C10.7973 28.8853 10.76 29.2213 10.76 29.52ZM61.6391 41L61.9751 32.208H52.6231L49.8791 41H39.1831L53.5751 0.679998H72.0551L72.2791 41H61.6391ZM59.3431 10.48L54.9191 24.704H62.2551L62.8711 10.48H59.3431ZM108.714 41H83.1781L90.2901 0.679998H100.37L94.8261 32.264H110.282L108.714 41ZM141.594 0.679998C146.484 0.679998 149.975 1.912 152.066 4.376C153.596 6.24266 154.362 8.576 154.362 11.376C154.362 12.384 154.268 13.448 154.082 14.568L151.898 27.056C151.151 31.2747 149.322 34.6533 146.41 37.192C143.498 39.7307 139.727 41 135.098 41H118.802L125.914 0.679998H141.594ZM138.066 9.416H134.426L130.45 32.264H135.77C137.524 32.264 138.887 31.7973 139.858 30.864C140.866 29.8933 141.556 28.3253 141.93 26.16L143.554 16.976C143.703 16.1547 143.778 15.408 143.778 14.736C143.778 11.1893 141.874 9.416 138.066 9.416ZM183.646 0.287997C192.644 0.287997 197.142 3.96533 197.142 11.32C197.142 12.552 197.012 13.8773 196.75 15.296L194.79 26.496C193.894 31.6853 191.953 35.5307 188.966 38.032C185.98 40.5333 181.78 41.784 176.366 41.784C170.953 41.784 167.182 40.5333 165.054 38.032C163.598 36.3147 162.87 33.944 162.87 30.92C162.87 29.576 163.02 28.1013 163.318 26.496L165.278 15.296C167.033 5.29066 173.156 0.287997 183.646 0.287997ZM177.878 33.104C179.745 33.104 181.238 32.6187 182.358 31.648C183.478 30.6773 184.262 28.8853 184.71 26.272L186.614 15.52C186.726 14.7733 186.782 14.1013 186.782 13.504C186.782 10.48 185.252 8.968 182.19 8.968C178.345 9.04266 176.049 11.2267 175.302 15.52L173.398 26.272C173.249 27.2053 173.174 28.176 173.174 29.184C173.174 31.7973 174.742 33.104 177.878 33.104ZM218.818 41.784C213.479 41.784 209.783 40.6267 207.73 38.312C206.311 36.6693 205.602 34.3733 205.602 31.424C205.602 30.1547 205.733 28.792 205.994 27.336L208.29 14.456C209.97 5.01066 216.037 0.287997 226.49 0.287997C230.821 0.287997 234.106 1.22133 236.346 3.088C238.586 4.91733 239.706 7.43733 239.706 10.648C239.706 12.1413 239.482 13.6347 239.034 15.128C238.623 16.584 238.213 17.6667 237.802 18.376L237.186 19.496H227.274C228.506 18.0773 229.122 16.0613 229.122 13.448C229.122 12.0667 228.767 10.984 228.058 10.2C227.349 9.37867 226.303 8.968 224.922 8.968C221.151 8.968 218.911 11.0587 218.202 15.24L216.242 26.552C216.055 27.5227 215.962 28.4747 215.962 29.408C215.962 31.872 217.437 33.104 220.386 33.104C223.933 33.104 226.061 31.1067 226.77 27.112H236.85L236.57 28.736C235.077 37.4347 229.159 41.784 218.818 41.784Z" fill="#00003A"/>
</svg>
