<svg width="371" height="114" viewBox="0 0 371 114" fill="none" xmlns="http://www.w3.org/2000/svg">
<path d="M49.9257 89.2815H44.6828V84.0385H42.0613V95.8351H21.0896V74.8634H32.8862V72.2419H27.6433V66.999H25.0218V72.2419H21.0896C20.3946 72.2426 19.7282 72.5191 19.2367 73.0105C18.7453 73.502 18.4688 74.1684 18.4681 74.8634V78.7956H13.2252V81.4171H18.4681V89.2815H13.2252V91.9029H18.4681V95.8351C18.4688 96.5302 18.7453 97.1965 19.2367 97.688C19.7282 98.1795 20.3946 98.4559 21.0896 98.4566H25.0218V103.699H27.6433V98.4566H35.5077V103.699H38.1291V98.4566H42.0613C42.7562 98.4555 43.4224 98.179 43.9138 97.6876C44.4052 97.1962 44.6817 96.53 44.6828 95.8351V91.9029H49.9257V89.2815Z" fill="#00AB59"/>
<path d="M38.1291 91.9027H25.0218V78.7954H38.1291V91.9027ZM27.6433 89.2813H35.5076V81.4169H27.6433V89.2813Z" fill="#00AB59"/>
<path d="M51.2364 81.4168H48.6149C48.6108 77.9418 47.2285 74.6103 44.7713 72.1531C42.3141 69.6959 38.9826 68.3136 35.5076 68.3095V65.688C39.6778 65.6925 43.6758 67.3511 46.6246 70.2998C49.5733 73.2486 51.2319 77.2466 51.2364 81.4168V81.4168Z" fill="#00AB59"/>
<path d="M44.6827 81.4168H42.0613C42.0592 79.6793 41.3681 78.0136 40.1395 76.785C38.9109 75.5564 37.2451 74.8652 35.5076 74.8632V72.2417C37.9402 72.2445 40.2723 73.212 41.9924 74.9321C43.7124 76.6522 44.68 78.9843 44.6827 81.4168Z" fill="#00AB59"/>
<path d="M9.75663 57.9243H30.6225H52.4226C56.4089 57.9243 57.6131 60.8244 57.7169 62.2744C57.6131 75.1176 57.4678 101.736 57.7169 105.465C57.9661 109.193 55.1217 110.954 53.6683 111.368C40.6921 111.472 13.7429 111.617 9.75663 111.368C5.77032 111.12 4.3585 107.329 4.15088 105.465V81.8499V63.5173C4.15088 59.7886 7.88804 58.235 9.75663 57.9243Z" stroke="#00003A" stroke-width="4"/>
<path d="M35.8242 42.714L43.9671 37.0767" stroke="#00003A" stroke-width="4" stroke-linecap="round" stroke-linejoin="round"/>
<path d="M20.7912 30.187L30.1868 37.0771L39.8956 30.187" stroke="#00003A" stroke-width="4" stroke-linecap="round" stroke-linejoin="round"/>
<path d="M24.5494 24.5493L30.5 28.9339L36.7637 24.5493" stroke="#00003A" stroke-width="4" stroke-linecap="round" stroke-linejoin="round"/>
<path d="M19.5385 21.4175L2 51.4834H30.1868V45.5329L17.6593 36.4504" stroke="#00003A" stroke-width="4" stroke-linecap="round" stroke-linejoin="round"/>
<path d="M36.4505 56.1813V52.1099H59L30.8132 2L23.2967 14.8407L30.1868 19.8517L33.945 18.2857" stroke="#00003A" stroke-width="4" stroke-linecap="round" stroke-linejoin="round"/>
<path d="M94.552 32.104C98.344 32.104 102.256 32.152 106.288 32.248C110.368 32.296 114.064 32.512 117.376 32.896L116.8 40.816H98.8C96.16 40.816 94.84 42.04 94.84 44.488V53.128H114.136V60.904H94.84V82H83.896V42.256C83.896 39.136 84.88 36.664 86.848 34.84C88.816 33.016 91.384 32.104 94.552 32.104ZM140.714 45.496C145.178 45.496 148.61 46.432 151.01 48.304C153.41 50.176 154.61 53.56 154.61 58.456V82H146.186L145.034 76.384C143.738 77.872 141.986 79.312 139.778 80.704C137.57 82.096 134.858 82.792 131.642 82.792C128.426 82.792 125.714 81.952 123.506 80.272C121.298 78.592 120.194 76.096 120.194 72.784V69.112C120.194 66.28 121.154 64.072 123.074 62.488C124.994 60.904 127.634 60.112 130.994 60.112H143.954V58.456C143.906 56.728 143.474 55.504 142.658 54.784C141.89 54.016 140.426 53.632 138.266 53.632C136.394 53.632 134.09 53.704 131.354 53.848C128.618 53.944 125.81 54.088 122.93 54.28L121.994 47.224C123.674 46.936 125.618 46.672 127.826 46.432C130.082 46.144 132.338 45.928 134.594 45.784C136.85 45.592 138.89 45.496 140.714 45.496ZM134.954 75.088C136.25 75.088 137.69 74.8 139.274 74.224C140.906 73.6 142.466 72.76 143.954 71.704V66.088H134.306C133.01 66.136 132.074 66.472 131.498 67.096C130.97 67.72 130.706 68.56 130.706 69.616V71.344C130.706 73.84 132.122 75.088 134.954 75.088ZM171.266 46.432L172.274 51.832C177.17 47.608 181.994 45.496 186.746 45.496H188.618L187.61 55.288H184.658C183.122 55.288 181.49 55.504 179.762 55.936C178.082 56.368 176.018 57.016 173.57 57.88V82H162.986V46.432H171.266ZM202.066 46.432L202.858 51.832C205.114 49.72 207.298 48.136 209.41 47.08C211.57 46.024 213.922 45.496 216.466 45.496C221.362 45.496 224.41 47.44 225.61 51.328C227.722 49.36 229.81 47.896 231.874 46.936C233.986 45.976 236.242 45.496 238.642 45.496C245.218 45.496 248.506 48.784 248.506 55.36V82H237.994V58.672C237.946 57.184 237.634 56.128 237.058 55.504C236.482 54.832 235.474 54.496 234.034 54.496C232.882 54.496 231.73 54.736 230.578 55.216C229.474 55.648 228.01 56.416 226.186 57.52V82H215.962V58.672C215.962 57.136 215.626 56.056 214.954 55.432C214.33 54.808 213.346 54.496 212.002 54.496C210.85 54.496 209.722 54.712 208.618 55.144C207.514 55.576 206.05 56.344 204.226 57.448V82H193.642V46.432H202.066ZM276.434 31.744C280.754 31.744 284.186 32.128 286.73 32.896C289.322 33.616 291.194 34.912 292.346 36.784C293.498 38.656 294.074 41.296 294.074 44.704C294.074 48.256 293.378 50.968 291.986 52.84C290.642 54.664 288.41 55.72 285.29 56.008V56.368C289.13 56.704 291.818 58 293.354 60.256C294.89 62.512 295.658 65.632 295.658 69.616C295.658 73.024 295.058 75.664 293.858 77.536C292.706 79.408 290.882 80.728 288.386 81.496C285.89 82.216 282.674 82.576 278.738 82.576C275.522 82.576 272.714 82.552 270.314 82.504C267.962 82.504 265.778 82.456 263.762 82.36C261.794 82.264 259.754 82.144 257.642 82V32.32C259.514 32.128 261.338 32.008 263.114 31.96C264.938 31.864 266.906 31.816 269.018 31.816C271.13 31.768 273.602 31.744 276.434 31.744ZM275.858 39.736C274.418 39.736 273.074 39.736 271.826 39.736C270.578 39.736 269.426 39.736 268.37 39.736V52.768H276.434C279.122 52.768 280.97 52.336 281.978 51.472C283.034 50.608 283.562 48.832 283.562 46.144C283.562 43.504 283.01 41.776 281.906 40.96C280.802 40.144 278.786 39.736 275.858 39.736ZM276.578 59.752H268.37V74.584C270.866 74.584 273.674 74.584 276.794 74.584C278.81 74.584 280.394 74.392 281.546 74.008C282.698 73.624 283.49 72.928 283.922 71.92C284.402 70.912 284.642 69.424 284.642 67.456C284.642 65.44 284.402 63.88 283.922 62.776C283.442 61.672 282.602 60.904 281.402 60.472C280.25 59.992 278.642 59.752 276.578 59.752ZM319.896 45.496C324.36 45.496 327.936 46.12 330.624 47.368C333.312 48.568 335.232 50.56 336.384 53.344C337.584 56.08 338.184 59.728 338.184 64.288C338.184 68.848 337.584 72.496 336.384 75.232C335.232 77.92 333.312 79.864 330.624 81.064C327.936 82.264 324.36 82.864 319.896 82.864C315.432 82.864 311.856 82.264 309.168 81.064C306.48 79.864 304.536 77.92 303.336 75.232C302.184 72.496 301.608 68.848 301.608 64.288C301.608 59.728 302.184 56.08 303.336 53.344C304.536 50.56 306.48 48.568 309.168 47.368C311.856 46.12 315.432 45.496 319.896 45.496ZM319.896 53.2C318.024 53.2 316.56 53.512 315.504 54.136C314.496 54.76 313.776 55.888 313.344 57.52C312.912 59.104 312.696 61.36 312.696 64.288C312.696 67.168 312.912 69.4 313.344 70.984C313.776 72.568 314.496 73.672 315.504 74.296C316.56 74.872 318.024 75.16 319.896 75.16C321.768 75.16 323.208 74.872 324.216 74.296C325.272 73.672 326.016 72.568 326.448 70.984C326.88 69.4 327.096 67.168 327.096 64.288C327.096 61.36 326.88 59.104 326.448 57.52C326.016 55.888 325.272 54.76 324.216 54.136C323.208 53.512 321.768 53.2 319.896 53.2ZM369.136 46.432V53.416H359.2V70.624C359.2 71.92 359.488 72.856 360.064 73.432C360.64 73.96 361.648 74.224 363.088 74.224H367.696L368.848 81.424C367.936 81.76 366.856 82.024 365.608 82.216C364.36 82.408 363.112 82.552 361.864 82.648C360.664 82.744 359.632 82.792 358.768 82.792C355.552 82.792 353.032 81.952 351.208 80.272C349.432 78.544 348.544 76.12 348.544 73V53.416H342.352V46.792L348.544 46.504V36.568H359.2V46.432H369.136Z" fill="#00003A"/>
<path d="M174.046 100.96C174.382 100.96 174.55 101.212 174.55 101.716C174.55 102.664 173.806 103.138 172.318 103.138C172.03 103.138 171.616 103.084 171.076 102.976C171.232 103.72 171.358 104.548 171.454 105.46C171.562 106.36 171.616 107.104 171.616 107.692C171.616 108.988 171.406 109.978 170.986 110.662C170.566 111.346 170.014 111.688 169.33 111.688C168.466 111.688 167.848 111.076 167.476 109.852C167.116 108.628 166.936 106.78 166.936 104.308C166.936 102.004 167.182 99.67 167.674 97.306C168.178 94.93 168.862 92.968 169.726 91.42C170.602 89.86 171.562 89.08 172.606 89.08C173.17 89.08 173.608 89.332 173.92 89.836C174.244 90.34 174.406 91.018 174.406 91.87C174.406 94.69 172.72 97.762 169.348 101.086C169.228 102.262 169.168 103.294 169.168 104.182C169.168 105.418 169.21 106.684 169.294 107.98C169.378 109.288 169.516 109.942 169.708 109.942C170.068 109.942 170.248 109.318 170.248 108.07C170.248 107.134 170.182 106.228 170.05 105.352C169.93 104.476 169.762 103.552 169.546 102.58C169.534 102.424 169.582 102.226 169.69 101.986C169.81 101.746 169.954 101.536 170.122 101.356C170.29 101.176 170.44 101.086 170.572 101.086C170.812 101.086 171.1 101.098 171.436 101.122C171.544 101.134 171.67 101.14 171.814 101.14C172.294 101.14 172.828 101.098 173.416 101.014C173.512 101.002 173.614 100.99 173.722 100.978C173.83 100.966 173.938 100.96 174.046 100.96ZM172.228 90.862C172.012 90.862 171.742 91.228 171.418 91.96C171.106 92.692 170.794 93.664 170.482 94.876C170.17 96.076 169.9 97.348 169.672 98.692C170.632 97.6 171.37 96.466 171.886 95.29C172.402 94.102 172.666 92.992 172.678 91.96C172.678 91.228 172.528 90.862 172.228 90.862ZM177.17 106.09C176.714 106.09 176.39 105.85 176.198 105.37C176.018 104.89 175.928 104.122 175.928 103.066C175.928 101.506 176.15 100.024 176.594 98.62C176.702 98.272 176.876 98.02 177.116 97.864C177.368 97.696 177.716 97.612 178.16 97.612C178.4 97.612 178.568 97.642 178.664 97.702C178.76 97.762 178.808 97.876 178.808 98.044C178.808 98.236 178.718 98.668 178.538 99.34C178.418 99.82 178.322 100.24 178.25 100.6C178.178 100.96 178.118 101.404 178.07 101.932C178.466 100.9 178.91 100.06 179.402 99.412C179.894 98.764 180.374 98.302 180.842 98.026C181.322 97.75 181.76 97.612 182.156 97.612C182.936 97.612 183.326 98.002 183.326 98.782C183.326 98.938 183.272 99.316 183.164 99.916C183.068 100.396 183.02 100.696 183.02 100.816C183.02 101.236 183.17 101.446 183.47 101.446C183.806 101.446 184.238 101.182 184.766 100.654C184.922 100.498 185.084 100.42 185.252 100.42C185.408 100.42 185.528 100.492 185.612 100.636C185.708 100.768 185.756 100.948 185.756 101.176C185.756 101.62 185.636 101.968 185.396 102.22C185.06 102.568 184.664 102.868 184.208 103.12C183.764 103.36 183.29 103.48 182.786 103.48C182.15 103.48 181.664 103.318 181.328 102.994C181.004 102.67 180.842 102.232 180.842 101.68C180.842 101.5 180.86 101.32 180.896 101.14C180.92 100.9 180.932 100.738 180.932 100.654C180.932 100.462 180.866 100.366 180.734 100.366C180.554 100.366 180.314 100.57 180.014 100.978C179.726 101.374 179.438 101.902 179.15 102.562C178.862 103.222 178.628 103.918 178.448 104.65C178.316 105.214 178.16 105.598 177.98 105.802C177.812 105.994 177.542 106.09 177.17 106.09ZM195.964 100.474C196.12 100.474 196.24 100.552 196.324 100.708C196.408 100.864 196.45 101.062 196.45 101.302C196.45 101.878 196.276 102.22 195.928 102.328C195.208 102.58 194.416 102.724 193.552 102.76C193.324 103.768 192.874 104.578 192.202 105.19C191.53 105.79 190.768 106.09 189.916 106.09C189.196 106.09 188.578 105.916 188.062 105.568C187.558 105.22 187.174 104.758 186.91 104.182C186.646 103.606 186.514 102.982 186.514 102.31C186.514 101.398 186.688 100.588 187.036 99.88C187.384 99.16 187.864 98.602 188.476 98.206C189.088 97.798 189.766 97.594 190.51 97.594C191.422 97.594 192.154 97.912 192.706 98.548C193.27 99.172 193.6 99.946 193.696 100.87C194.26 100.834 194.932 100.714 195.712 100.51C195.808 100.486 195.892 100.474 195.964 100.474ZM190.06 104.182C190.444 104.182 190.774 104.026 191.05 103.714C191.338 103.402 191.53 102.952 191.626 102.364C191.254 102.112 190.966 101.782 190.762 101.374C190.57 100.966 190.474 100.534 190.474 100.078C190.474 99.886 190.492 99.694 190.528 99.502H190.438C189.958 99.502 189.556 99.736 189.232 100.204C188.92 100.66 188.764 101.308 188.764 102.148C188.764 102.808 188.89 103.312 189.142 103.66C189.406 104.008 189.712 104.182 190.06 104.182ZM198.883 106.09C198.427 106.09 198.103 105.85 197.911 105.37C197.731 104.89 197.641 104.122 197.641 103.066C197.641 101.506 197.863 100.024 198.307 98.62C198.415 98.272 198.589 98.02 198.829 97.864C199.081 97.696 199.429 97.612 199.873 97.612C200.113 97.612 200.281 97.642 200.377 97.702C200.473 97.762 200.521 97.876 200.521 98.044C200.521 98.236 200.431 98.668 200.251 99.34C200.131 99.82 200.035 100.24 199.963 100.6C199.891 100.948 199.831 101.386 199.783 101.914C200.107 100.978 200.491 100.186 200.935 99.538C201.391 98.89 201.853 98.41 202.321 98.098C202.801 97.774 203.251 97.612 203.671 97.612C204.091 97.612 204.385 97.708 204.553 97.9C204.733 98.092 204.823 98.386 204.823 98.782C204.823 99.166 204.709 99.862 204.481 100.87C204.385 101.302 204.319 101.626 204.283 101.842C204.679 100.834 205.117 100.012 205.597 99.376C206.089 98.74 206.569 98.29 207.037 98.026C207.505 97.75 207.937 97.612 208.333 97.612C208.717 97.612 209.005 97.714 209.197 97.918C209.401 98.11 209.503 98.398 209.503 98.782C209.503 99.094 209.437 99.682 209.305 100.546C209.185 101.278 209.089 101.974 209.017 102.634C208.945 103.282 208.909 104.008 208.909 104.812C208.909 105.268 208.813 105.598 208.621 105.802C208.441 105.994 208.141 106.09 207.721 106.09C207.325 106.09 207.037 105.988 206.857 105.784C206.677 105.58 206.587 105.274 206.587 104.866C206.587 104.386 206.671 103.594 206.839 102.49C206.983 101.53 207.055 100.918 207.055 100.654C207.055 100.462 206.989 100.366 206.857 100.366C206.701 100.366 206.479 100.57 206.191 100.978C205.903 101.374 205.615 101.902 205.327 102.562C205.039 103.222 204.805 103.918 204.625 104.65C204.493 105.226 204.337 105.61 204.157 105.802C203.989 105.994 203.713 106.09 203.329 106.09C202.933 106.09 202.633 105.904 202.429 105.532C202.237 105.148 202.141 104.686 202.141 104.146C202.141 103.69 202.201 103.03 202.321 102.166C202.417 101.398 202.465 100.894 202.465 100.654C202.465 100.462 202.399 100.366 202.267 100.366C202.087 100.366 201.859 100.582 201.583 101.014C201.307 101.446 201.037 101.998 200.773 102.67C200.521 103.342 200.317 104.002 200.161 104.65C200.029 105.214 199.873 105.598 199.693 105.802C199.525 105.994 199.255 106.09 198.883 106.09ZM225.974 106.144C224.378 106.144 223.1 105.844 222.14 105.244C221.18 104.632 220.7 103.702 220.7 102.454C220.7 101.794 220.814 101.29 221.042 100.942C221.27 100.594 221.606 100.42 222.05 100.42C222.374 100.42 222.638 100.504 222.842 100.672C223.046 100.84 223.148 101.056 223.148 101.32C223.148 101.56 223.13 101.77 223.094 101.95C223.094 101.998 223.082 102.082 223.058 102.202C223.046 102.322 223.04 102.448 223.04 102.58C223.04 103.12 223.31 103.522 223.85 103.786C224.402 104.05 225.17 104.182 226.154 104.182C227.174 104.182 227.972 104.002 228.548 103.642C229.124 103.27 229.412 102.754 229.412 102.094C229.412 101.686 229.28 101.338 229.016 101.05C228.752 100.75 228.422 100.504 228.026 100.312C227.63 100.108 227.072 99.862 226.352 99.574C225.428 99.214 224.672 98.872 224.084 98.548C223.508 98.224 223.01 97.786 222.59 97.234C222.182 96.67 221.978 95.974 221.978 95.146C221.978 94.282 222.206 93.514 222.662 92.842C223.13 92.17 223.796 91.648 224.66 91.276C225.536 90.904 226.562 90.718 227.738 90.718C228.614 90.718 229.418 90.85 230.15 91.114C230.882 91.366 231.464 91.756 231.896 92.284C232.34 92.812 232.562 93.46 232.562 94.228C232.562 94.984 232.448 95.554 232.22 95.938C231.992 96.322 231.656 96.514 231.212 96.514C230.9 96.514 230.636 96.418 230.42 96.226C230.216 96.034 230.114 95.806 230.114 95.542C230.114 95.314 230.132 95.104 230.168 94.912C230.204 94.552 230.222 94.324 230.222 94.228C230.222 93.724 229.976 93.34 229.484 93.076C228.992 92.812 228.38 92.68 227.648 92.68C226.616 92.68 225.824 92.872 225.272 93.256C224.732 93.628 224.462 94.156 224.462 94.84C224.462 95.296 224.6 95.686 224.876 96.01C225.164 96.334 225.518 96.604 225.938 96.82C226.358 97.036 226.946 97.294 227.702 97.594C228.614 97.966 229.346 98.302 229.898 98.602C230.45 98.902 230.918 99.31 231.302 99.826C231.698 100.342 231.896 100.978 231.896 101.734C231.896 103.15 231.356 104.242 230.276 105.01C229.208 105.766 227.774 106.144 225.974 106.144ZM238.346 106.09C237.602 106.09 237.008 105.82 236.564 105.28C236.12 104.74 235.898 104.032 235.898 103.156C235.898 102.196 236.12 101.29 236.564 100.438C237.008 99.574 237.596 98.884 238.328 98.368C239.072 97.84 239.858 97.576 240.686 97.576C240.95 97.576 241.124 97.63 241.208 97.738C241.304 97.834 241.382 98.014 241.442 98.278C241.694 98.23 241.958 98.206 242.234 98.206C242.822 98.206 243.116 98.416 243.116 98.836C243.116 99.088 243.026 99.688 242.846 100.636C242.57 102.016 242.432 102.976 242.432 103.516C242.432 103.696 242.474 103.84 242.558 103.948C242.654 104.056 242.774 104.11 242.918 104.11C243.146 104.11 243.422 103.966 243.746 103.678C244.07 103.378 244.508 102.898 245.06 102.238C245.204 102.07 245.366 101.986 245.546 101.986C245.702 101.986 245.822 102.058 245.906 102.202C246.002 102.346 246.05 102.544 246.05 102.796C246.05 103.276 245.936 103.648 245.708 103.912C245.216 104.524 244.694 105.04 244.142 105.46C243.59 105.88 243.056 106.09 242.54 106.09C242.144 106.09 241.778 105.958 241.442 105.694C241.118 105.418 240.872 105.046 240.704 104.578C240.08 105.586 239.294 106.09 238.346 106.09ZM238.994 104.272C239.258 104.272 239.51 104.116 239.75 103.804C239.99 103.492 240.164 103.078 240.272 102.562L240.938 99.25C240.434 99.262 239.966 99.454 239.534 99.826C239.114 100.186 238.778 100.666 238.526 101.266C238.274 101.866 238.148 102.502 238.148 103.174C238.148 103.546 238.22 103.822 238.364 104.002C238.52 104.182 238.73 104.272 238.994 104.272ZM254.109 101.986C254.265 101.986 254.385 102.058 254.469 102.202C254.565 102.346 254.613 102.544 254.613 102.796C254.613 103.276 254.499 103.648 254.271 103.912C253.755 104.548 253.191 105.07 252.579 105.478C251.979 105.886 251.295 106.09 250.527 106.09C249.471 106.09 248.685 105.61 248.169 104.65C247.665 103.69 247.413 102.448 247.413 100.924C247.413 99.46 247.599 97.792 247.971 95.92C248.355 94.048 248.913 92.44 249.645 91.096C250.389 89.752 251.271 89.08 252.291 89.08C252.867 89.08 253.317 89.35 253.641 89.89C253.977 90.418 254.145 91.18 254.145 92.176C254.145 93.604 253.749 95.26 252.957 97.144C252.165 99.028 251.091 100.894 249.735 102.742C249.819 103.234 249.957 103.588 250.149 103.804C250.341 104.008 250.593 104.11 250.905 104.11C251.397 104.11 251.829 103.972 252.201 103.696C252.573 103.408 253.047 102.922 253.623 102.238C253.767 102.07 253.929 101.986 254.109 101.986ZM251.895 90.862C251.619 90.862 251.307 91.36 250.959 92.356C250.611 93.352 250.305 94.588 250.041 96.064C249.777 97.54 249.633 98.956 249.609 100.312C250.461 98.908 251.139 97.504 251.643 96.1C252.147 94.684 252.399 93.394 252.399 92.23C252.399 91.318 252.231 90.862 251.895 90.862ZM265.907 101.986C266.063 101.986 266.183 102.058 266.267 102.202C266.363 102.346 266.411 102.544 266.411 102.796C266.411 103.276 266.297 103.648 266.069 103.912C265.577 104.512 265.037 105.028 264.449 105.46C263.861 105.88 263.279 106.09 262.703 106.09C261.791 106.09 261.095 105.556 260.615 104.488C260.111 105.124 259.667 105.55 259.283 105.766C258.911 105.982 258.473 106.09 257.969 106.09C257.237 106.09 256.631 105.82 256.151 105.28C255.683 104.728 255.449 104.014 255.449 103.138C255.449 102.178 255.653 101.29 256.061 100.474C256.469 99.646 257.027 98.974 257.735 98.458C258.455 97.93 259.259 97.618 260.147 97.522C260.375 95.194 260.807 93.208 261.443 91.564C262.091 89.908 262.937 89.08 263.981 89.08C264.497 89.08 264.923 89.314 265.259 89.782C265.607 90.25 265.781 90.958 265.781 91.906C265.781 93.25 265.451 94.822 264.791 96.622C264.131 98.422 263.249 100.27 262.145 102.166C262.193 102.862 262.295 103.36 262.451 103.66C262.619 103.96 262.829 104.11 263.081 104.11C263.405 104.11 263.735 103.966 264.071 103.678C264.407 103.39 264.857 102.91 265.421 102.238C265.565 102.07 265.727 101.986 265.907 101.986ZM263.783 90.844C263.555 90.844 263.327 91.252 263.099 92.068C262.871 92.872 262.673 93.928 262.505 95.236C262.349 96.544 262.235 97.912 262.163 99.34C263.507 96.412 264.179 94.06 264.179 92.284C264.179 91.828 264.137 91.474 264.053 91.222C263.981 90.97 263.891 90.844 263.783 90.844ZM258.599 104.272C258.827 104.272 259.055 104.182 259.283 104.002C259.511 103.81 259.799 103.462 260.147 102.958C260.027 102.31 259.967 101.584 259.967 100.78C259.967 100.492 259.979 100.024 260.003 99.376C259.343 99.58 258.791 100.024 258.347 100.708C257.915 101.38 257.699 102.13 257.699 102.958C257.699 103.834 257.999 104.272 258.599 104.272ZM276.826 100.474C276.982 100.474 277.102 100.552 277.186 100.708C277.27 100.864 277.312 101.062 277.312 101.302C277.312 101.878 277.138 102.22 276.79 102.328C276.07 102.58 275.278 102.724 274.414 102.76C274.186 103.768 273.736 104.578 273.064 105.19C272.392 105.79 271.63 106.09 270.778 106.09C270.058 106.09 269.44 105.916 268.924 105.568C268.42 105.22 268.036 104.758 267.772 104.182C267.508 103.606 267.376 102.982 267.376 102.31C267.376 101.398 267.55 100.588 267.898 99.88C268.246 99.16 268.726 98.602 269.338 98.206C269.95 97.798 270.628 97.594 271.372 97.594C272.284 97.594 273.016 97.912 273.568 98.548C274.132 99.172 274.462 99.946 274.558 100.87C275.122 100.834 275.794 100.714 276.574 100.51C276.67 100.486 276.754 100.474 276.826 100.474ZM270.922 104.182C271.306 104.182 271.636 104.026 271.912 103.714C272.2 103.402 272.392 102.952 272.488 102.364C272.116 102.112 271.828 101.782 271.624 101.374C271.432 100.966 271.336 100.534 271.336 100.078C271.336 99.886 271.354 99.694 271.39 99.502H271.3C270.82 99.502 270.418 99.736 270.094 100.204C269.782 100.66 269.626 101.308 269.626 102.148C269.626 102.808 269.752 103.312 270.004 103.66C270.268 104.008 270.574 104.182 270.922 104.182ZM281.816 106.09C280.676 106.09 279.782 105.76 279.134 105.1C278.498 104.428 278.18 103.546 278.18 102.454C278.18 101.482 278.372 100.63 278.756 99.898C279.14 99.166 279.638 98.602 280.25 98.206C280.862 97.81 281.504 97.612 282.176 97.612C282.836 97.612 283.346 97.81 283.706 98.206C284.078 98.59 284.264 99.088 284.264 99.7C284.264 100.204 284.15 100.63 283.922 100.978C283.706 101.326 283.418 101.5 283.058 101.5C282.83 101.5 282.644 101.446 282.5 101.338C282.368 101.23 282.302 101.08 282.302 100.888C282.302 100.804 282.314 100.708 282.338 100.6C282.362 100.492 282.38 100.414 282.392 100.366C282.452 100.186 282.482 100.018 282.482 99.862C282.482 99.706 282.44 99.586 282.356 99.502C282.284 99.418 282.176 99.376 282.032 99.376C281.756 99.376 281.498 99.502 281.258 99.754C281.018 99.994 280.826 100.324 280.682 100.744C280.538 101.164 280.466 101.626 280.466 102.13C280.466 102.814 280.604 103.336 280.88 103.696C281.168 104.044 281.57 104.218 282.086 104.218C282.494 104.218 282.866 104.098 283.202 103.858C283.55 103.618 283.892 103.264 284.228 102.796C284.372 102.616 284.534 102.526 284.714 102.526C284.87 102.526 284.99 102.598 285.074 102.742C285.17 102.886 285.218 103.084 285.218 103.336C285.218 103.768 285.116 104.14 284.912 104.452C284.588 104.956 284.162 105.358 283.634 105.658C283.106 105.946 282.5 106.09 281.816 106.09Z" fill="#00003A"/>
</svg>
