<svg width="100" height="187" viewBox="0 0 100 187" fill="none" xmlns="http://www.w3.org/2000/svg">
<path d="M78 143H70V135H66V153H34V121H52V117H44V109H40V117H34C32.9395 117.001 31.9227 117.423 31.1727 118.173C30.4228 118.923 30.0011 119.939 30 121V127H22V131H30V143H22V147H30V153C30.0011 154.061 30.4228 155.077 31.1727 155.827C31.9227 156.577 32.9395 156.999 34 157H40V165H44V157H56V165H60V157H66C67.0604 156.998 68.0769 156.576 68.8267 155.827C69.5765 155.077 69.9984 154.06 70 153V147H78V143Z" fill="#00AB59"/>
<path d="M60 147H40V127H60V147ZM44 143H56V131H44V143Z" fill="#00AB59"/>
<path d="M80 131H76C75.9936 125.698 73.8845 120.614 70.1351 116.865C66.3858 113.116 61.3024 111.006 56 111V107C62.3631 107.007 68.4636 109.538 72.963 114.037C77.4623 118.536 79.9931 124.637 80 131V131Z" fill="#00AB59"/>
<path d="M70 131H66C65.9968 128.349 64.9422 125.807 63.0676 123.932C61.1929 122.058 58.6512 121.003 56 121V117C59.7117 117.004 63.2702 118.481 65.8948 121.105C68.5194 123.73 69.9958 127.288 70 131Z" fill="#00AB59"/>
<path d="M14.4159 92H49.464H86.0814C92.7772 92 94.7998 96.8712 94.9742 99.3068C94.7998 120.879 94.5557 165.59 94.9742 171.853C95.3927 178.116 90.615 181.074 88.1738 181.769C66.3778 181.943 21.1117 182.187 14.4159 181.769C7.72015 181.352 5.34874 174.985 5 171.853V132.187V101.394C5 95.1315 11.2773 92.5219 14.4159 92Z" stroke="#00003A" stroke-width="9"/>
<path d="M58 68L71 59" stroke="#00003A" stroke-width="6" stroke-linecap="round" stroke-linejoin="round"/>
<path d="M34 48L49 59L64.5 48" stroke="#00003A" stroke-width="6" stroke-linecap="round" stroke-linejoin="round"/>
<path d="M40 39L49.5 46L59.5 39" stroke="#00003A" stroke-width="6" stroke-linecap="round" stroke-linejoin="round"/>
<path d="M32 34L4 82H49V72.5L29 58" stroke="#00003A" stroke-width="6" stroke-linecap="round" stroke-linejoin="round"/>
<path d="M59 89.5V83H95L50 3L38 23.5L49 31.5L55 29" stroke="#00003A" stroke-width="6" stroke-linecap="round" stroke-linejoin="round"/>
</svg>
